<?xml version="1.0" standalone="no"?>
<!DOCTYPE svg PUBLIC "-//W3C//DTD SVG 20010904//EN"
 "http://www.w3.org/TR/2001/REC-SVG-20010904/DTD/svg10.dtd">
<svg version="1.0" xmlns="http://www.w3.org/2000/svg"
 width="700.000000pt" height="700.000000pt" viewBox="0 0 700.000000 700.000000"
 preserveAspectRatio="xMidYMid meet">
<metadata>
Created by potrace 1.14, written by Peter Selinger 2001-2017
</metadata>
<g transform="translate(0.000000,700.000000) scale(0.100000,-0.100000)"
fill="#000000" stroke="none">
<path d="M3435 6963 c-53 -31 -1016 -588 -1260 -728 -126 -73 -362 -209 -1165
-673 -157 -91 -303 -175 -325 -187 -22 -13 -78 -45 -125 -72 l-85 -49 0 -1753
0 -1754 245 -142 c135 -78 385 -222 555 -320 171 -98 335 -193 365 -211 30
-18 242 -140 470 -272 418 -240 504 -290 1035 -597 160 -92 305 -176 323 -186
l33 -19 67 39 c37 21 139 80 227 131 88 51 230 133 315 182 85 50 173 100 195
112 22 13 91 53 154 89 62 37 115 67 117 67 1 0 55 31 120 70 64 38 118 70
119 70 1 0 83 46 181 103 921 532 1305 754 1336 774 21 12 40 23 42 23 3 0 39
21 81 46 l75 46 -2 1751 -3 1751 -85 49 c-47 27 -103 60 -125 72 -22 13 -107
62 -190 110 -82 48 -170 99 -195 113 -25 13 -70 39 -100 57 -30 18 -73 43 -95
55 -22 12 -227 131 -455 263 -228 132 -435 251 -459 265 -24 13 -165 95 -315
181 -149 87 -395 228 -546 315 -151 87 -292 169 -312 182 -21 13 -40 24 -43
24 -2 0 -27 14 -53 30 -27 17 -51 30 -53 30 -2 -1 -31 -17 -64 -37z m358 -432
c160 -93 465 -269 677 -391 212 -123 401 -232 420 -242 19 -11 64 -37 100 -58
36 -21 81 -47 100 -58 138 -78 891 -514 956 -553 45 -27 84 -49 87 -49 3 0 34
-17 68 -39 l64 -38 0 -1604 0 -1603 -170 -98 c-172 -99 -301 -174 -365 -210
-51 -30 -203 -117 -220 -127 -8 -5 -76 -44 -150 -87 -74 -42 -245 -141 -380
-219 -135 -78 -319 -185 -410 -237 -91 -53 -210 -121 -265 -153 -121 -70 -208
-121 -255 -147 -19 -11 -151 -87 -292 -169 l-257 -149 -228 131 c-125 73 -249
145 -276 160 -26 16 -50 29 -54 29 -3 0 -14 6 -22 14 -9 7 -41 27 -71 43 -54
29 -425 243 -605 348 -49 29 -106 62 -125 73 -19 10 -94 53 -167 95 -72 42
-147 85 -165 96 -18 10 -148 85 -288 166 -140 81 -273 158 -295 170 -22 13
-107 62 -190 110 -82 48 -166 97 -185 107 -19 11 -50 29 -67 40 l-33 20 0
1599 0 1599 23 14 c12 8 38 23 57 33 19 11 53 30 75 44 22 13 57 33 77 44 21
11 154 87 296 169 141 82 367 213 502 291 135 78 394 227 575 332 182 105 346
200 365 211 45 25 439 253 640 370 85 50 156 91 158 91 1 1 134 -75 295 -168z"/>
<path d="M3885 6038 c-165 -120 -348 -302 -496 -493 -59 -76 -149 -205 -149
-214 0 -5 -3 -11 -8 -13 -7 -3 -92 -141 -151 -248 -45 -79 -107 -210 -156
-325 l-43 -101 54 -179 c29 -99 51 -181 49 -183 -1 -2 -25 7 -52 19 -106 48
-137 59 -143 52 -7 -7 -30 -70 -36 -98 -1 -5 -12 -46 -23 -90 -12 -44 -23 -89
-26 -100 -16 -79 -24 -127 -30 -174 -4 -30 -9 -63 -11 -75 -12 -63 -19 -207
-19 -416 0 -265 4 -316 40 -590 13 -91 65 -341 96 -452 24 -88 39 -122 63
-149 62 -68 62 -68 81 16 9 41 16 77 16 80 0 2 5 19 10 37 5 18 12 47 15 63 3
17 10 48 16 70 5 22 12 51 15 64 2 13 15 67 28 120 13 53 26 107 29 121 3 14
30 126 61 250 61 241 63 250 69 280 8 36 127 473 158 580 17 58 31 110 32 115
2 6 9 30 16 55 8 25 14 47 15 50 0 3 8 30 18 60 9 30 26 89 38 130 12 41 24
80 28 85 3 6 6 15 7 20 1 6 19 62 38 125 48 150 58 162 25 30 -15 -63 -110
-504 -115 -540 -3 -19 -16 -87 -29 -150 -13 -63 -26 -128 -29 -145 -2 -16 -25
-138 -50 -270 -40 -213 -58 -312 -72 -395 -3 -14 -13 -72 -24 -130 -11 -58
-22 -118 -24 -135 -12 -76 -46 -273 -51 -295 -3 -14 -8 -41 -11 -60 -2 -19 -9
-58 -15 -86 -5 -28 -12 -70 -15 -94 -3 -24 -7 -47 -9 -50 -11 -17 -16 -100 -6
-100 6 0 34 9 64 20 58 22 90 53 218 205 401 479 690 993 843 1498 20 65 38
132 41 149 3 17 8 35 11 39 3 5 7 21 9 36 2 16 11 66 20 113 22 127 32 224 34
338 l2 102 -28 11 c-38 14 -159 5 -276 -21 -40 -8 -42 -5 -8 14 27 15 138 81
186 111 22 13 69 40 103 60 l64 37 -6 71 c-32 366 -145 746 -310 1043 -34 62
-100 154 -110 154 -6 0 -42 -23 -81 -52z"/>
<path d="M2899 2128 c-1 -23 -27 -129 -99 -403 -124 -471 -200 -777 -200 -803
0 -2 37 40 83 93 l82 97 162 486 c90 268 163 492 163 498 0 7 -20 12 -50 13
-27 0 -66 7 -86 16 -44 18 -54 19 -55 3z"/>
</g>
</svg>
